{
  "accessors": [
    {
      "bufferView": 2,
      "componentType": 5126,
      "count": 32,
      "max": [
        9.75,
        4.125,
        8.96875
      ],
      "min": [
        -9.75,
        -4.125,
        -8.96875
      ],
      "type": "VEC3"
    },
    {
      "bufferView": 2,
      "byteOffset": 384,
      "componentType": 5126,
      "count": 32,
      "max": [
        0.6790003180503845,
        0.7215086817741394,
        0.6823523640632629
      ],
      "min": [
        -0.5773502588272095,
        -0.7215086817741394,
        -0.6872664093971252
      ],
      "type": "VEC3"
    },
    {
      "bufferView": 1,
      "componentType": 5126,
      "count": 32,
      "max": [
        1.0,
        0.9999999403953552
      ],
      "min": [
        3.987487318113381e-08,
        0.0
      ],
      "type": "VEC2"
    },
    {
      "bufferView": 0,
      "componentType": 5125,
      "count": 60,
      "type": "SCALAR"
    },
    {
      "bufferView": 2,
      "byteOffset": 768,
      "componentType": 5126,
      "count": 1425,
      "max": [
        9.75,
        4.125,
        8.96875
      ],
      "min": [
        -9.75,
        -4.125,
        -8.96875
      ],
      "type": "VEC3"
    },
    {
      "bufferView": 2,
      "byteOffset": 17868,
      "componentType": 5126,
      "count": 1425,
      "max": [
        0.9985149502754211,
        0.9983755350112915,
        0.998376727104187
      ],
      "min": [
        -0.9984136819839478,
        -0.9983755350112915,
        -0.998376727104187
      ],
      "type": "VEC3"
    },
    {
      "bufferView": 1,
      "byteOffset": 256,
      "componentType": 5126,
      "count": 1425,
      "max": [
        1.0,
        0.9999999403953552
      ],
      "min": [
        3.987487318113381e-08,
        1.1523470372365452e-10
      ],
      "type": "VEC2"
    },
    {
      "bufferView": 0,
      "byteOffset": 240,
      "componentType": 5125,
      "count": 7260,
      "type": "SCALAR"
    }
  ],
  "asset": {
    "extras": {
      "author": "Nick (https://sketchfab.com/jeromy)",
      "license": "CC-BY-4.0 (http://creativecommons.org/licenses/by/4.0/)",
      "source": "https://sketchfab.com/3d-models/corsair-200r-41efdc6e62454ec0a870ee8451768d75",
      "title": "Corsair 200R"
    },
    "generator": "Sketchfab-12.68.0",
    "version": "2.0"
  },
  "bufferViews": [
    {
      "buffer": 0,
      "byteLength": 29280,
      "name": "floatBufferViews",
      "target": 34963
    },
    {
      "buffer": 0,
      "byteLength": 11656,
      "byteOffset": 29280,
      "byteStride": 8,
      "name": "floatBufferViews",
      "target": 34962
    },
    {
      "buffer": 0,
      "byteLength": 34968,
      "byteOffset": 40936,
      "byteStride": 12,
      "name": "floatBufferViews",
      "target": 34962
    }
  ],
  "buffers": [
    {
      "byteLength": 75904,
      "uri": "scene.bin"
    }
  ],
  "extensionsUsed": [
    "KHR_materials_unlit"
  ],
  "images": [
    {
      "uri": "textures/case_material_baseColor.jpeg"
    }
  ],
  "materials": [
    {
      "doubleSided": true,
      "extensions": {
        "KHR_materials_unlit": {}
      },
      "name": "case_material",
      "pbrMetallicRoughness": {
        "baseColorTexture": {
          "index": 0
        },
        "metallicFactor": 0.0
      }
    },
    {
      "doubleSided": true,
      "extensions": {
        "KHR_materials_unlit": {}
      },
      "name": "corsair_200r_evee",
      "pbrMetallicRoughness": {
        "baseColorTexture": {
          "index": 0
        },
        "metallicFactor": 0.0
      }
    }
  ],
  "meshes": [
    {
      "name": "corsair_200r_case_material_0",
      "primitives": [
        {
          "attributes": {
            "NORMAL": 1,
            "POSITION": 0,
            "TEXCOORD_0": 2
          },
          "indices": 3,
          "material": 0,
          "mode": 4
        }
      ]
    },
    {
      "name": "corsair_200r_internal_corsair_200r_evee_0",
      "primitives": [
        {
          "attributes": {
            "NORMAL": 5,
            "POSITION": 4,
            "TEXCOORD_0": 6
          },
          "indices": 7,
          "material": 1,
          "mode": 4
        }
      ]
    }
  ],
  "nodes": [
    {
      "children": [
        1
      ],
      "matrix": [
        0.1441437304019928,
        0.0,
        0.0,
        0.0,
        0.0,
        3.2006337669530715e-17,
        -0.1441437304019928,
        0.0,
        0.0,
        0.1441437304019928,
        3.2006337669530715e-17,
        0.0,
        0.0,
        0.0,
        0.0,
        1.0
      ],
      "name": "Sketchfab_model"
    },
    {
      "children": [
        2
      ],
      "matrix": [
        1.0,
        0.0,
        0.0,
        0.0,
        0.0,
        0.0,
        1.0,
        0.0,
        0.0,
        -1.0,
        0.0,
        0.0,
        0.0,
        0.0,
        0.0,
        1.0
      ],
      "name": "corsair_200r.fbx"
    },
    {
      "children": [
        3,
        5,
        7
      ],
      "name": "RootNode"
    },
    {
      "children": [
        4
      ],
      "matrix": [
        2.5399999618530273,
        0.0,
        0.0,
        0.0,
        0.0,
        -1.1102692909280351e-07,
        -2.5399999618530247,
        0.0,
        0.0,
        2.5399999618530247,
        -1.1102692909280351e-07,
        0.0,
        0.0,
        0.0,
        0.0,
        1.0
      ],
      "name": "corsair_200r"
    },
    {
      "mesh": 0,
      "name": "corsair_200r_case_material_0"
    },
    {
      "children": [
        6
      ],
      "matrix": [
        -9.590329500291103,
        -6.553977298505944,
        -9.040007933339481,
        0.0,
        -4.769174116337224,
        13.179384028056415,
        -4.495508500425319,
        0.0,
        10.096105849329179,
        -2.4419541975196304e-06,
        -10.710716901395745,
        0.0,
        110.11524200439453,
        78.65373992919922,
        95.78636169433594,
        1.0
      ],
      "name": "Camera"
    },
    {
      "name": "Object_6"
    },
    {
      "children": [
        8
      ],
      "matrix": [
        2.5399999618530273,
        0.0,
        0.0,
        0.0,
        0.0,
        -1.1102692909280351e-07,
        -2.5399999618530247,
        0.0,
        0.0,
        2.5399999618530247,
        -1.1102692909280351e-07,
        0.0,
        0.0,
        0.0,
        0.0,
        1.0
      ],
      "name": "corsair_200r_internal"
    },
    {
      "mesh": 1,
      "name": "corsair_200r_internal_corsair_200r_evee_0"
    }
  ],
  "samplers": [
    {
      "magFilter": 9729,
      "minFilter": 9987,
      "wrapS": 10497,
      "wrapT": 10497
    }
  ],
  "scene": 0,
  "scenes": [
    {
      "name": "Sketchfab_Scene",
      "nodes": [
        0
      ]
    }
  ],
  "textures": [
    {
      "sampler": 0,
      "source": 0
    }
  ]
}
